#N canvas 626 173 733 644 12;
#X obj 52 93 osc~;
#X floatatom 52 47 5 0 0 0 - - - 0;
#X floatatom 107 47 5 0 0 0 - - - 0;
#X obj 52 193 dac~;
#X obj 52 142 *~;
#X obj 191 42 vsl 15 128 0 127 0 0 empty empty empty 0 -9 0 10 #fcfcfc
#000000 #000000 0 1;
#X floatatom 191 185 5 0 0 0 - - - 0;
#X obj 191 216 / 127;
#X floatatom 191 239 5 0 0 0 - - - 0;
#X obj 191 267 sig~;
#X connect 0 0 4 0;
#X connect 1 0 0 0;
#X connect 2 0 0 1;
#X connect 4 0 3 0;
#X connect 4 0 3 1;
#X connect 5 0 6 0;
#X connect 6 0 7 0;
#X connect 7 0 8 0;
#X connect 8 0 9 0;
#X connect 9 0 4 1;
