#N canvas 278 326 788 426 12;
#X obj 404 252 sin-live;
#X msg 405 217 \$1 \$2 \$2;
#X obj 399 313 dac~;
#X floatatom 116 119 5 0 0 0 - - - 0;
#X floatatom 117 149 5 0 0 0 - - - 0;
#X floatatom 118 176 5 0 0 0 - - - 0;
#X text 178 119 freq;
#X text 171 147 attack;
#X text 176 172 decay;
#X obj 47 182 f;
#X obj 50 219 f;
#X obj 133 236 f;
#X obj 363 32 inlet;
#X obj 366 69 t b b b;
#X obj 81 285 pack f f f;
#X obj 30 12 loadbang;
#X msg 36 53 440;
#X msg 90 52 10;
#X msg 148 51 200;
#X connect 0 0 2 0;
#X connect 0 0 2 1;
#X connect 1 0 0 0;
#X connect 3 0 9 1;
#X connect 4 0 10 1;
#X connect 5 0 11 1;
#X connect 9 0 14 0;
#X connect 10 0 14 1;
#X connect 11 0 14 2;
#X connect 12 0 13 0;
#X connect 13 0 9 0;
#X connect 13 1 10 0;
#X connect 13 2 11 0;
#X connect 14 0 1 0;
#X connect 15 0 18 0;
#X connect 15 0 17 0;
#X connect 15 0 16 0;
#X connect 16 0 3 0;
#X connect 17 0 4 0;
#X connect 18 0 5 0;
#X coords 0 -1 1 1 200 100 1 100 100;
