#N canvas 42 534 684 304 12;
#X obj 37 1172;
#X obj 133 125 sequencer sin;
#X obj 167 50 tgl 15 0 empty empty empty 17 7 0 10 #fcfcfc #000000
#000000 0 1;
#X floatatom 348 62 5 0 0 0 - - - 0;
#X msg 46 68 \; pd dsp 1;
#X msg 48 120 \; pd dsp 0;
#X obj 72 241 tone;
#X obj 119 218 tone;
#X obj 152 223 tone;
#X obj 185 224 tone;
#X obj 220 223 tone;
#X obj 254 226 tone;
#X obj 287 231 tone;
#X obj 320 232 tone;
#X obj 358 230 tone;
#X obj 392 233 tone;
#X obj 425 238 tone;
#X obj 458 239 tone;
#X obj 493 238 tone;
#X obj 527 241 tone;
#X obj 560 246 tone;
#X obj 593 247 tone;
#X connect 1 0 6 0;
#X connect 1 1 7 0;
#X connect 1 2 8 0;
#X connect 1 3 9 0;
#X connect 1 4 10 0;
#X connect 1 5 11 0;
#X connect 1 6 12 0;
#X connect 1 7 13 0;
#X connect 1 8 14 0;
#X connect 1 9 15 0;
#X connect 1 10 16 0;
#X connect 1 11 17 0;
#X connect 1 12 18 0;
#X connect 1 13 19 0;
#X connect 1 14 20 0;
#X connect 1 15 21 0;
#X connect 2 0 1 0;
#X connect 3 0 1 1;
