#N canvas 429 128 1215 791 12;
#N canvas 0 22 450 278 (subpatch) 0;
#X array scope 100 float 3;
#A 0 0 0 0 0 0 0 0 0 0 0 0 0 0 0 0 0 0 0 0 0 0 0 0 0 0 0 0 0 0 0 0
0 0 0 0 0 0 0 0 0 0 0 0 0 0 0 0 0 0 0 0 0 0 0 0 0 0 0 0 0 0 0 0 0 0
0 0 0 0 0 0 0 0 0 0 0 0 0 0 0 0 0 0 0 0 0 0 0 0 0 0 0 0 0 0 0 0 0 0
0;
#X coords 0 1 100 -1 200 140 1 0 0;
#X restore 314 174 graph;
#X obj 231 206 tgl 15 0 empty empty empty 17 7 0 10 #fcfcfc #000000
#000000 0 1;
#X obj 231 226 metro 100;
#X obj 231 261 bng 15 250 50 0 empty empty empty 17 7 0 10 #fcfcfc
#000000 #000000;
#X obj 187 295 tabwrite~ scope;
#X obj 106 168 vline~;
#X obj 25 152 osc~ 100;
#X obj 25 257 *~;
#X text 386 13 freq \, attack \, decay;
#X obj 24 48 unpack f f f;
#X obj 106 89 pack f f;
#X floatatom 25 107 5 0 0 0 - - - 0;
#X msg 300 14 1000 200 10;
#X text 177 105 go to 1 in \$1 ms \, go to 0 in \$2 ms \, at \$1 ms
;
#X msg 106 132 1 \$1 \, 0 \$2 \$1;
#X obj 24 10 inlet;
#X obj 27 313 outlet~;
#X connect 1 0 2 0;
#X connect 2 0 3 0;
#X connect 3 0 4 0;
#X connect 5 0 7 1;
#X connect 6 0 7 0;
#X connect 7 0 16 0;
#X connect 9 0 11 0;
#X connect 9 1 10 0;
#X connect 9 2 10 1;
#X connect 10 0 14 0;
#X connect 11 0 6 0;
#X connect 14 0 5 0;
#X connect 15 0 9 0;
