#N canvas 703 284 674 602 12;
#X obj 45 285 sin-live;
#X text 149 204 freq attack decay;
#X obj 48 86 random 30;
#X obj 48 109 + 45;
#X floatatom 48 132 5 0 0 0 - - - 0;
#X obj 48 157 mtof;
#X floatatom 48 180 5 0 0 0 - - - 0;
#X floatatom 192 143 5 0 0 0 - - - 0;
#X text 275 86 200 1000;
#X obj 195 87 random 800;
#X obj 195 110 + 200;
#X obj 48 11 bng 15 250 50 0 empty empty empty 17 7 0 10 #fcfcfc #000000
#000000;
#X floatatom 114 148 5 0 0 0 - - - 0;
#X obj 117 92 random 800;
#X obj 117 115 + 200;
#X obj 48 37 t b b b;
#X obj 48 213 pack f f f;
#X obj 106 8 inlet;
#X obj 48 322 dac~;
#X msg 45 251 \$1 \$2 \$3;
#X connect 0 0 18 0;
#X connect 0 0 18 1;
#X connect 2 0 3 0;
#X connect 3 0 4 0;
#X connect 4 0 5 0;
#X connect 5 0 6 0;
#X connect 6 0 16 0;
#X connect 7 0 16 2;
#X connect 9 0 10 0;
#X connect 10 0 7 0;
#X connect 11 0 15 0;
#X connect 12 0 16 1;
#X connect 13 0 14 0;
#X connect 14 0 12 0;
#X connect 15 0 2 0;
#X connect 15 1 13 0;
#X connect 15 2 9 0;
#X connect 16 0 19 0;
#X connect 17 0 11 0;
#X connect 19 0 0 0;
