#N canvas 287 226 956 676 12;
#X obj 49 80 bng 15 250 50 0 empty empty empty 17 7 0 10 #fcfcfc #000000
#000000;
#X obj 49 126 random 30;
#X obj 49 149 + 45;
#X floatatom 49 172 5 0 0 0 - - - 0;
#X obj 49 197 mtof;
#X floatatom 49 220 5 0 0 0 - - - 0;
#X obj 142 82 bng 15 250 50 0 empty empty empty 17 7 0 10 #fcfcfc #000000
#000000;
#X obj 142 128 random 30;
#X obj 142 151 + 45;
#X floatatom 142 174 5 0 0 0 - - - 0;
#X obj 142 199 mtof;
#X floatatom 142 222 5 0 0 0 - - - 0;
#X obj 243 78 bng 15 250 50 0 empty empty empty 17 7 0 10 #fcfcfc #000000
#000000;
#X obj 243 124 random 30;
#X obj 243 147 + 45;
#X floatatom 243 170 5 0 0 0 - - - 0;
#X obj 243 195 mtof;
#X floatatom 243 218 5 0 0 0 - - - 0;
#X obj 49 8 bng 15 250 50 0 empty empty empty 17 7 0 10 #fcfcfc #000000
#000000;
#X obj 49 35 t b b b;
#X obj 49 260 pack f f f;
#X text 114 34 right to left order;
#X obj 49 293 print;
#X connect 0 0 1 0;
#X connect 1 0 2 0;
#X connect 2 0 3 0;
#X connect 3 0 4 0;
#X connect 4 0 5 0;
#X connect 5 0 20 0;
#X connect 6 0 7 0;
#X connect 7 0 8 0;
#X connect 8 0 9 0;
#X connect 9 0 10 0;
#X connect 10 0 11 0;
#X connect 11 0 20 1;
#X connect 12 0 13 0;
#X connect 13 0 14 0;
#X connect 14 0 15 0;
#X connect 15 0 16 0;
#X connect 16 0 17 0;
#X connect 17 0 20 2;
#X connect 18 0 19 0;
#X connect 19 0 0 0;
#X connect 19 1 6 0;
#X connect 19 2 12 0;
#X connect 20 0 22 0;
