#N canvas 833 51 607 696 12;
#X msg 25 33 listen 0;
#X obj 25 107 netreceive -u -b;
#X obj 25 137 oscparse;
#X msg 50 482 disconnect;
#X obj 34 646 netsend -u -b;
#X obj 189 485 hsl 128 15 0 127 0 0 empty empty empty -2 -8 0 10 #fcfcfc
#000000 #000000 0 1;
#X obj 185 543 oscformat 1 volume;
#X obj 185 570 list prepend send;
#X obj 185 594 list trim;
#X msg 331 481 set 1 pan;
#X msg 329 513 set 1 volume;
#X msg 46 60 listen 6668;
#X text 22 10 OSC receive:;
#X text 25 429 OSC send;
#X msg 138 74 listen 9000;
#X text 269 55 OSC msg example: /frequency 440 or /amp 0.5 So the syntax
= /address + msg, f 45;
#X text 303 128 Data types: (i) Integer \, a whole number (f) Float
\, a decimal number (s) String \, chain of character (b) Blob \, block
of binary data, f 40;
#X obj 24 167 list trim;
#X listbox 302 398 10 0 0 0 - - - 0;
#X obj 271 278 unpack s s f, f 13;
#X obj 301 312 pack s f;
#X obj 301 340 list trim;
#X listbox 358 420 10 0 0 0 - - - 0;
#X listbox 415 396 10 0 0 0 - - - 0;
#X listbox 472 418 10 0 0 0 - - - 0;
#X obj 301 367 route faderA faderB faderC faderD;
#X listbox 24 283 10 0 0 0 - - - 0;
#X listbox 64 306 10 0 0 0 - - - 0;
#X listbox 105 332 10 0 0 0 - - - 0;
#X obj 64 329 s Y;
#X obj 24 306 s X;
#X obj 105 355 s Z;
#X obj 302 421 s fA;
#X obj 358 443 s fB;
#X obj 414 440 s fC;
#X obj 472 441 s fD;
#X text 141 46 OSC port;
#X text 389 243 To convert a list to a non-list meta-message \, use
[list trim] which will strip off the "list" again and leave you the
rest., f 37;
#X msg 26 451 connect 193.157.245.0 9000;
#X obj 74 405 select syntien;
#X obj 24 203 route syntien;
#X obj 167 225 print;
#X obj 9 248 unpack symbol f symbol f f f;
#X connect 0 0 1 0;
#X connect 1 0 2 0;
#X connect 2 0 17 0;
#X connect 3 0 4 0;
#X connect 5 0 6 0;
#X connect 6 0 7 0;
#X connect 7 0 8 0;
#X connect 8 0 4 0;
#X connect 9 0 6 0;
#X connect 10 0 6 0;
#X connect 11 0 1 0;
#X connect 14 0 1 0;
#X connect 17 0 40 0;
#X connect 18 0 32 0;
#X connect 19 1 20 0;
#X connect 19 2 20 1;
#X connect 20 0 21 0;
#X connect 21 0 25 0;
#X connect 22 0 33 0;
#X connect 23 0 34 0;
#X connect 24 0 35 0;
#X connect 25 0 18 0;
#X connect 25 1 22 0;
#X connect 25 2 23 0;
#X connect 25 3 24 0;
#X connect 26 0 30 0;
#X connect 27 0 29 0;
#X connect 28 0 31 0;
#X connect 38 0 4 0;
#X connect 40 0 41 0;
#X connect 40 0 42 0;
#X connect 42 3 26 0;
#X connect 42 4 27 0;
#X connect 42 5 28 0;
