#N canvas 824 356 780 520 12;
#X obj 141 345 osc~ 100;
#X obj 141 234 vline~;
#X obj 141 373 *~;
#X obj 304 241 snapshot~;
#X obj 304 210 metro 100;
#X obj 304 174 loadbang;
#X floatatom 304 277 5 0 0 0 - - - 0;
#X obj 141 427 dac~;
#X obj 141 38 bng 15 250 50 0 empty empty empty 17 7 0 10 #fcfcfc #000000
#000000;
#X msg 403 201 \; pd dsp 1;
#X text 34 240 mod the pitch;
#X text 178 376 also control the amp;
#X obj 141 8 inlet;
#X obj 141 306 +~ 60;
#X obj 141 282 *~ 50;
#X obj 159 72 inlet;
#X floatatom 159 106 5 0 0 0 - - - 0;
#X obj 141 166 f;
#X msg 178 131 200;
#X msg 141 202 1 5 \, 0 \$1 5;
#X obj 421 328 r leftX;
#X obj 421 352 scale 0 127 30 300;
#X obj 283 73 r leftY;
#X obj 283 97 scale 0 127 200 800;
#X connect 0 0 2 0;
#X connect 1 0 2 1;
#X connect 1 0 3 0;
#X connect 1 0 14 0;
#X connect 2 0 7 0;
#X connect 2 0 7 1;
#X connect 3 0 6 0;
#X connect 4 0 3 0;
#X connect 5 0 4 0;
#X connect 5 0 9 0;
#X connect 5 0 18 0;
#X connect 8 0 17 0;
#X connect 12 0 8 0;
#X connect 13 0 0 0;
#X connect 14 0 13 0;
#X connect 15 0 16 0;
#X connect 16 0 17 1;
#X connect 17 0 19 0;
#X connect 18 0 17 1;
#X connect 18 0 16 0;
#X connect 19 0 1 0;
#X connect 20 0 21 0;
#X connect 21 0 13 1;
#X connect 22 0 23 0;
#X connect 23 0 16 0;
