#N canvas 0 38 253 283 12;
#X obj 155 25 inlet;
#X obj 75 241 outlet;
#X obj 155 91 change;
#X floatatom 155 56 5 0 0 0 - - - 0;
#X obj 155 118 bng 15 250 50 0 empty empty empty 17 7 0 10 #fcfcfc
#000000 #000000;
#X msg 76 117 set \$1, f 7;
#X msg 76 179 56;
#X floatatom 76 210 5 0 0 0 - - - 0;
#X obj 155 142 del 1;
#X connect 0 0 3 0;
#X connect 2 0 4 0;
#X connect 3 0 2 0;
#X connect 3 0 5 0;
#X connect 4 0 6 0;
#X connect 4 0 8 0;
#X connect 5 0 6 0;
#X connect 6 0 7 0;
#X connect 7 0 1 0;
#X connect 8 0 6 0;
