#N canvas 97 260 361 346 12;
#X obj 135 206 snapshot~;
#X obj 205 140 tgl 15 0 empty empty empty 17 7 0 10 #fcfcfc #000000
#000000 0 1;
#X obj 205 164 metro 50;
#X obj 135 128 sig~;
#X obj 232 65 loadbang;
#X msg 232 96 1;
#X obj 40 283 outlet raw;
#X obj 41 18 inlet sensor;
#X obj 150 283 outlet proc;
#X obj 166 32 inlet cutoff;
#X obj 135 164 lop~ 2;
#X connect 0 0 8 0;
#X connect 1 0 2 0;
#X connect 2 0 0 0;
#X connect 3 0 10 0;
#X connect 4 0 5 0;
#X connect 5 0 1 0;
#X connect 7 0 3 0;
#X connect 7 0 6 0;
#X connect 9 0 10 1;
#X connect 10 0 0 0;
