#N canvas 1060 58 564 532 12;
#X obj 63 116 soundfiler;
#X floatatom 63 140 10 0 0 0 - - - 0;
#X obj 45 292 phasor~;
#X text 105 286 phasor can take the shape of the data in the array
, f 25;
#X obj 45 329 *~;
#X obj 45 353 tabread4~ sample2;
#X obj 45 471 dac~;
#X obj 75 164 expr 44100/$f1;
#X msg 470 449 \; pd dsp \$1;
#X obj 470 431 tgl 15 0 empty empty empty 17 7 0 10 #fcfcfc #000000
#000000 0 1;
#X msg 26 231 0;
#N canvas 266 304 450 278 (subpatch) 0;
#X array sample2 366151 float 4;
#X coords 0 1 366150 -1 200 140 1;
#X restore 314 128 graph;
#X floatatom 75 191 11 0 0 0 - - - 0;
#X obj 78 225 hsl 192 15 -5 5 0 0 empty empty empty -2 -8 0 10 #fcfcfc
#000000 #000000 0 1;
#X obj 45 435 *~;
#X obj 17 338 vsl 15 128 0 1 0 0 empty empty empty 0 -9 0 10 #fcfcfc
#000000 #000000 0 1;
#X text 23 213 off;
#X obj 45 266 sig~;
#X floatatom 186 247 10 0 0 0 - - - 0;
#X obj 63 405 sig~;
#X text 176 206 pitch (speed);
#X obj 26 38 tgl 15 0 empty empty empty 17 7 0 10 #fcfcfc #000000 #000000
0 1;
#X obj 26 58 select 0 1, f 11;
#X msg 63 92 read -resize grains.wav sample2;
#X obj 75 378 r leftY;
#X obj 190 161 scale 0 127 -2 2;
#X obj 190 137 r leftX;
#X connect 0 0 1 0;
#X connect 1 0 7 0;
#X connect 1 0 4 1;
#X connect 2 0 4 0;
#X connect 4 0 5 0;
#X connect 5 0 14 0;
#X connect 7 0 12 0;
#X connect 9 0 8 0;
#X connect 10 0 17 0;
#X connect 12 0 13 0;
#X connect 13 0 17 0;
#X connect 13 0 18 0;
#X connect 14 0 6 0;
#X connect 14 0 6 1;
#X connect 15 0 19 0;
#X connect 17 0 2 0;
#X connect 19 0 14 1;
#X connect 21 0 22 0;
#X connect 22 0 10 0;
#X connect 22 1 23 0;
#X connect 23 0 0 0;
#X connect 26 0 25 0;
