#N canvas 468 138 981 684 12;
#X obj 141 345 osc~ 100;
#X obj 141 234 vline~;
#X obj 141 373 *~;
#X obj 200 478 dac~;
#X obj 141 38 bng 15 250 50 0 empty empty empty 17 7 0 10 #fcfcfc #000000
#000000;
#X text 34 240 mod the pitch;
#X text 178 376 also control the amp;
#X obj 141 8 inlet;
#X obj 368 314 noise~;
#X obj 368 347 *~;
#X obj 205 445 +~;
#X obj 446 231 vline~;
#X obj 141 306 +~ 80;
#X obj 141 282 *~ 80;
#X obj 173 420 *~ 0.3;
#X obj 368 376 *~ 0.4;
#X obj 368 400 hip~ 1000;
#X obj 413 46 r rightY;
#X obj 263 234 r rightX;
#X floatatom 182 106 5 0 0 0 - - - 0;
#X obj 164 166 f;
#X msg 201 131 200;
#X msg 141 202 1 3 \, 0 \$1 3;
#X obj 413 70 scale 0 127 100 800;
#X msg 355 199 1 3 \, 0 \$1 3;
#X obj 232 280 scale 0 127 80 800;
#X obj 533 377 scale 0 127 1000 8000;
#X connect 0 0 2 0;
#X connect 1 0 2 1;
#X connect 1 0 13 0;
#X connect 2 0 14 0;
#X connect 4 0 20 0;
#X connect 7 0 4 0;
#X connect 8 0 9 0;
#X connect 9 0 15 0;
#X connect 10 0 3 0;
#X connect 10 0 3 1;
#X connect 11 0 9 1;
#X connect 12 0 0 0;
#X connect 13 0 12 0;
#X connect 14 0 10 0;
#X connect 15 0 16 0;
#X connect 16 0 10 0;
#X connect 17 0 23 0;
#X connect 18 0 25 0;
#X connect 18 0 26 0;
#X connect 19 0 20 1;
#X connect 20 0 22 0;
#X connect 20 0 24 0;
#X connect 21 0 20 1;
#X connect 21 0 19 0;
#X connect 22 0 1 0;
#X connect 23 0 19 0;
#X connect 24 0 11 0;
#X connect 25 0 12 1;
#X connect 26 0 16 1;
