#N canvas 49 83 1846 1006 12;
#X obj 131 33 tgl 15 0 empty empty empty 17 7 0 10 #fcfcfc #000000
#000000 0 1;
#X obj 131 53 metro 1000;
#X floatatom 930 43 5 0 0 0 - - - 0;
#X obj 131 77 f;
#X obj 171 77 + 1;
#X obj 131 101 mod 8;
#X obj 131 125 select 0 1 2 3 4 5 6 7 8, f 33;
#X obj 131 191 bng 15 250 50 0 empty empty empty 17 7 0 10 #fcfcfc
#000000 #000000;
#X obj 178 191 bng 15 250 50 0 empty empty empty 17 7 0 10 #fcfcfc
#000000 #000000;
#X obj 225 191 bng 15 250 50 0 empty empty empty 17 7 0 10 #fcfcfc
#000000 #000000;
#X obj 269 191 bng 15 250 50 0 empty empty empty 17 7 0 10 #fcfcfc
#000000 #000000;
#X obj 312 192 bng 15 250 50 0 empty empty empty 17 7 0 10 #fcfcfc
#000000 #000000;
#X obj 355 192 bng 15 250 50 0 empty empty empty 17 7 0 10 #fcfcfc
#000000 #000000;
#X obj 402 192 bng 15 250 50 0 empty empty empty 17 7 0 10 #fcfcfc
#000000 #000000;
#X obj 450 193 bng 15 250 50 0 empty empty empty 17 7 0 10 #fcfcfc
#000000 #000000;
#X obj 131 222 vsl 15 128 0 127 0 0 empty empty empty 0 -9 0 10 #fcfcfc
#000000 #000000 0 1;
#X obj 178 222 vsl 15 128 0 127 0 0 empty empty empty 0 -9 0 10 #fcfcfc
#000000 #000000 0 1;
#X obj 225 222 vsl 15 128 0 127 0 0 empty empty empty 0 -9 0 10 #fcfcfc
#000000 #000000 0 1;
#X obj 269 222 vsl 15 128 0 127 0 0 empty empty empty 0 -9 0 10 #fcfcfc
#000000 #000000 0 1;
#X obj 312 222 vsl 15 128 0 127 0 0 empty empty empty 0 -9 0 10 #fcfcfc
#000000 #000000 0 1;
#X obj 355 222 vsl 15 128 0 127 0 0 empty empty empty 0 -9 0 10 #fcfcfc
#000000 #000000 0 1;
#X obj 402 222 vsl 15 128 0 127 0 0 empty empty empty 0 -9 0 10 #fcfcfc
#000000 #000000 0 1;
#X obj 450 223 vsl 15 128 0 127 0 0 empty empty empty 0 -9 0 10 #fcfcfc
#000000 #000000 0 1;
#X floatatom 131 358 5 0 0 0 - - - 0;
#X floatatom 178 358 5 0 0 0 - - - 0;
#X floatatom 225 358 5 0 0 0 - - - 0;
#X floatatom 269 358 5 0 0 0 - - - 0;
#X floatatom 312 358 5 0 0 0 - - - 0;
#X floatatom 355 358 5 0 0 0 - - - 0;
#X floatatom 402 358 5 0 0 0 - - - 0;
#X floatatom 450 359 5 0 0 0 - - - 0;
#X obj 128 436 makenote;
#X floatatom 215 451 5 0 0 0 - - - 0;
#X obj 128 460 noteout 1;
#X obj 932 67 expr 60/$f1*1000;
#X obj 270 429 loadbang;
#X msg 270 453 88;
#X obj 964 22 loadbang;
#X msg 930 20 100;
#X text 584 73 Random;
#X obj 569 96 tgl 15 0 empty empty empty 17 7 0 10 #fcfcfc #000000
#000000 0 1;
#X obj 570 118 metro 1000;
#X obj 932 93 s BPM;
#X obj 217 424 r BPM;
#X obj 601 94 r BPM;
#X obj 168 27 r BPM;
#X obj 744 150 random 3;
#X obj 744 174 select 0 1 2;
#X msg 569 204 74;
#X msg 662 205 85;
#X msg 599 204 75;
#X msg 631 205 78;
#X obj 570 172 select 0 1 2 3;
#X obj 570 148 random 4;
#X obj 690 301 +;
#X obj 690 352 makenote, f 12;
#X obj 690 390 noteout 1;
#X floatatom 727 299 5 0 0 0 - - - 0;
#X msg 731 326 100;
#X obj 771 322 r BPM;
#X msg 743 207 -24;
#X msg 779 207 -12;
#X msg 814 207 0;
#N canvas 658 82 849 144 MIDI_ctrl_ins 0;
#X obj 31 67 outlet;
#X obj 123 66 outlet;
#X obj 209 70 outlet;
#X obj 303 65 outlet;
#X obj 433 67 outlet;
#X obj 538 71 outlet;
#X obj 630 65 outlet;
#X obj 751 68 outlet;
#X obj 33 33 ctlin 108 1;
#X obj 122 33 ctlin 109 1;
#X obj 208 33 ctlin 110 1;
#X obj 307 33 ctlin 111 1;
#X obj 428 33 ctlin 114 1;
#X obj 534 33 ctlin 115 1;
#X obj 631 31 ctlin 116 1;
#X obj 748 31 ctlin 117 1;
#X connect 8 0 0 0;
#X connect 9 0 1 0;
#X connect 10 0 2 0;
#X connect 11 0 3 0;
#X connect 12 0 4 0;
#X connect 13 0 5 0;
#X connect 14 0 6 0;
#X connect 15 0 7 0;
#X restore 324 33 pd MIDI_ctrl_ins;
#X f 59;
#X obj 788 291 loadbang;
#X connect 0 0 1 0;
#X connect 1 0 3 0;
#X connect 2 0 34 0;
#X connect 3 0 4 0;
#X connect 3 0 5 0;
#X connect 4 0 3 1;
#X connect 5 0 6 0;
#X connect 6 0 7 0;
#X connect 6 1 8 0;
#X connect 6 2 9 0;
#X connect 6 3 10 0;
#X connect 6 4 11 0;
#X connect 6 5 12 0;
#X connect 6 6 13 0;
#X connect 6 7 14 0;
#X connect 7 0 15 0;
#X connect 8 0 16 0;
#X connect 9 0 17 0;
#X connect 10 0 18 0;
#X connect 11 0 19 0;
#X connect 12 0 20 0;
#X connect 13 0 21 0;
#X connect 14 0 22 0;
#X connect 15 0 23 0;
#X connect 16 0 24 0;
#X connect 17 0 25 0;
#X connect 18 0 26 0;
#X connect 19 0 27 0;
#X connect 20 0 28 0;
#X connect 21 0 29 0;
#X connect 22 0 30 0;
#X connect 23 0 31 0;
#X connect 24 0 31 0;
#X connect 25 0 31 0;
#X connect 26 0 31 0;
#X connect 27 0 31 0;
#X connect 28 0 31 0;
#X connect 29 0 31 0;
#X connect 30 0 31 0;
#X connect 31 0 33 0;
#X connect 31 1 33 1;
#X connect 32 0 31 1;
#X connect 34 0 42 0;
#X connect 35 0 36 0;
#X connect 36 0 32 0;
#X connect 37 0 38 0;
#X connect 38 0 2 0;
#X connect 40 0 41 0;
#X connect 41 0 46 0;
#X connect 41 0 53 0;
#X connect 43 0 31 2;
#X connect 44 0 41 1;
#X connect 45 0 1 1;
#X connect 46 0 47 0;
#X connect 47 0 60 0;
#X connect 47 1 61 0;
#X connect 47 2 62 0;
#X connect 48 0 54 0;
#X connect 49 0 54 0;
#X connect 50 0 54 0;
#X connect 51 0 54 0;
#X connect 52 0 48 0;
#X connect 52 1 50 0;
#X connect 52 2 51 0;
#X connect 52 3 49 0;
#X connect 53 0 52 0;
#X connect 54 0 55 0;
#X connect 54 0 57 0;
#X connect 55 0 56 0;
#X connect 55 1 56 1;
#X connect 58 0 55 1;
#X connect 59 0 55 2;
#X connect 60 0 54 1;
#X connect 61 0 54 1;
#X connect 62 0 54 1;
#X connect 64 0 58 0;
