#N canvas 22 73 1892 1020 12;
#X obj 55 39 notein;
#X obj 55 104 mtof;
#X obj 55 128 osc~;
#X obj 55 249 dac~;
#X obj 55 216 *~;
#X obj 111 39 vsl 15 128 0 127 0 0 empty empty empty 0 -9 0 10 #fcfcfc
#000000 #000000 0 1;
#X obj 111 178 / 127;
#X floatatom 111 201 5 0 0 0 - - - 0;
#X obj 111 229 sig~;
#X floatatom 55 63 5 0 0 0 - - - 0;
#X obj 367 309 vline~;
#X floatatom 486 161 5 0 0 0 - - - 0;
#X floatatom 433 162 5 0 0 0 - - - 0;
#X obj 367 244 pack f f;
#X obj 325 24 notein;
#X obj 325 56 stripnote;
#X floatatom 325 80 5 0 0 0 - - - 0;
#X obj 325 103 mtof;
#X obj 385 85 / 127;
#X text 428 84 velocity;
#X text 272 79 Key nr;
#X obj 311 228 osc~;
#X obj 323 303 *~;
#X obj 326 337 *~;
#X obj 322 417 dac~;
#X obj 381 205 f;
#X obj 416 205 f;
#X obj 325 132 t f b b;
#X text 592 222 Envelope;
#X msg 577 348 0 \, 1 10 0 \, 0.6 10 10 \, 0.6 100 20 \, 0 150 120
;
#X msg 367 279 0 \, 1 \$1 0 \, 0 \$2 \$1;
#X text 508 275 Attack: Start from 0 \, reach 1 in \$1ms with 0ms delay
Decay: Following a \$1ms delay \, go back to 0 in \$2ms;
#X text 573 370 Attack: Start from 0 \, reach 1 in 10ms with 0ms delay
Decay: Following a 10ms delay \, reduce to 0.6 in 10ms Sustain: Following
a 20ms delay \, stay at 0.6 for 100ms Release: Following a 120ms delay
\, go back to 0 in 150ms;
#X obj 504 132 unpack f f;
#X obj 504 81 loadbang;
#X msg 504 106 10 100;
#X msg 915 25 \; pd dsp 1;
#X obj 228 281 simpadd;
#X floatatom 376 352 5 0 0 0 - - - 0;
#X obj 323 380 lop~ 250;
#N canvas 0 22 450 278 (subpatch) 0;
#X array scope 100 float 3;
#A 0 0 0 0 0 0 0 0 0 0 0 0 0 0 0 0 0 0 0 0 0 0 0 0 0 0 0 0 0 0 0 0
0 0 0 0 0 0 0 0 0 0 0 0 0 0 0 0 0 0 0 0 0 0 0 0 0 0 0 0 0 0 0 0 0 0
0 0 0 0 0 0 0 0 0 0 0 0 0 0 0 0 0 0 0 0 0 0 0 0 0 0 0 0 0 0 0 0 0 0
0;
#X coords 0 1 100 -1 200 140 1 0 0;
#X restore 700 82 graph;
#X obj 460 341 tgl 15 0 empty empty empty 17 7 0 10 #fcfcfc #000000
#000000 0 1;
#X obj 460 361 metro 100;
#X obj 460 396 bng 15 250 50 0 empty empty empty 17 7 0 10 #fcfcfc
#000000 #000000;
#X obj 416 430 tabwrite~ scope;
#X connect 0 0 9 0;
#X connect 1 0 2 0;
#X connect 2 0 4 0;
#X connect 4 0 3 0;
#X connect 4 0 3 1;
#X connect 5 0 6 0;
#X connect 6 0 7 0;
#X connect 7 0 8 0;
#X connect 8 0 4 1;
#X connect 9 0 1 0;
#X connect 10 0 22 1;
#X connect 11 0 26 1;
#X connect 12 0 25 1;
#X connect 13 0 30 0;
#X connect 14 0 15 0;
#X connect 14 1 15 1;
#X connect 15 0 16 0;
#X connect 15 1 18 0;
#X connect 16 0 17 0;
#X connect 17 0 27 0;
#X connect 18 0 23 1;
#X connect 21 0 22 0;
#X connect 22 0 23 0;
#X connect 23 0 39 0;
#X connect 25 0 13 0;
#X connect 26 0 13 1;
#X connect 27 0 21 0;
#X connect 27 1 25 0;
#X connect 27 2 26 0;
#X connect 30 0 10 0;
#X connect 33 0 12 0;
#X connect 33 1 11 0;
#X connect 34 0 35 0;
#X connect 35 0 33 0;
#X connect 38 0 39 1;
#X connect 39 0 24 0;
#X connect 39 0 24 1;
#X connect 39 0 44 0;
#X connect 41 0 42 0;
#X connect 42 0 43 0;
#X connect 43 0 44 0;
