#N canvas 447 51 993 776 12;
#X obj 95 20 ctlin, f 15;
#X floatatom 96 76 5 0 0 0 - - - 0;
#X floatatom 147 104 5 0 0 0 - - - 0;
#X floatatom 198 139 5 0 0 0 - - - 0;
#X text 30 76 Ctrl val;
#X text 88 104 Ctrl nr;
#X text 139 139 MIDI ch;
#N canvas 591 82 849 144 MIDI_ctrl_ins 1;
#X obj 31 67 outlet;
#X obj 123 66 outlet;
#X obj 209 70 outlet;
#X obj 303 65 outlet;
#X obj 433 67 outlet;
#X obj 538 71 outlet;
#X obj 630 65 outlet;
#X obj 751 68 outlet;
#X obj 33 33 ctlin 108 1;
#X obj 122 33 ctlin 109 1;
#X obj 208 33 ctlin 110 1;
#X obj 307 33 ctlin 111 1;
#X obj 428 33 ctlin 114 1;
#X obj 534 33 ctlin 115 1;
#X obj 631 31 ctlin 116 1;
#X obj 748 31 ctlin 117 1;
#X text 39 112 (Encoders: C on Novation ReMOTE);
#X connect 8 0 0 0;
#X connect 9 0 1 0;
#X connect 10 0 2 0;
#X connect 11 0 3 0;
#X connect 12 0 4 0;
#X connect 13 0 5 0;
#X connect 14 0 6 0;
#X connect 15 0 7 0;
#X restore 473 82 pd MIDI_ctrl_ins;
#X f 59;
#X obj 473 113 vsl 15 128 0 127 0 0 empty empty empty 0 -9 0 10 #fcfcfc
#000000 #000000 0 1;
#X obj 531 114 vsl 15 128 0 127 0 0 empty empty empty 0 -9 0 10 #fcfcfc
#000000 #000000 0 1;
#X obj 590 114 vsl 15 128 0 127 0 0 empty empty empty 0 -9 0 10 #fcfcfc
#000000 #000000 0 1;
#X obj 648 115 vsl 15 128 0 127 0 0 empty empty empty 0 -9 0 10 #fcfcfc
#000000 #000000 0 1;
#X obj 707 116 vsl 15 128 0 127 0 0 empty empty empty 0 -9 0 10 #fcfcfc
#000000 #000000 0 1;
#X obj 765 117 vsl 15 128 0 127 0 0 empty empty empty 0 -9 0 10 #fcfcfc
#000000 #000000 0 1;
#X obj 824 116 vsl 15 128 0 127 0 0 empty empty empty 0 -9 0 10 #fcfcfc
#000000 #000000 0 1;
#X obj 883 116 vsl 15 128 0 127 0 0 empty empty empty 0 -9 0 10 #fcfcfc
#000000 #000000 0 1;
#X obj 469 269 / 127;
#X obj 469 293 * 1000;
#X obj 469 317 osc~;
#X obj 387 487 dac~;
#X obj 529 268 / 127;
#X obj 529 292 * 1000;
#X obj 529 316 osc~;
#X obj 584 264 / 127;
#X obj 584 288 * 1000;
#X obj 584 312 osc~;
#X obj 644 263 / 127;
#X obj 644 287 * 1000;
#X obj 644 311 osc~;
#X obj 644 335 *~ 0.4;
#X obj 703 266 / 127;
#X obj 703 290 * 1000;
#X obj 703 314 osc~;
#X obj 703 338 *~ 0.4;
#X obj 763 265 / 127;
#X obj 763 289 * 1000;
#X obj 763 313 osc~;
#X obj 818 261 / 127;
#X obj 818 285 * 1000;
#X obj 818 309 osc~;
#X obj 878 260 / 127;
#X obj 878 284 * 1000;
#X obj 878 308 osc~;
#X obj 469 341 *~ 1;
#X obj 529 340 *~ 0.7;
#X obj 584 336 *~ 0.5;
#X obj 763 337 *~ 0.3;
#X obj 818 333 *~ 0.2;
#X obj 878 332 *~ 0.1;
#X obj 391 410 *~;
#X obj 407 156 vsl 15 128 0 127 0 0 empty empty empty 0 -9 0 10 #fcfcfc
#000000 #000000 0 1;
#X obj 407 295 / 127;
#X floatatom 407 318 5 0 0 0 - - - 0;
#X obj 407 346 sig~;
#N canvas 0 22 450 278 (subpatch) 0;
#X array scope 100 float 3;
#A 0 0 0 0 0 0 0 0 0 0 0 0 0 0 0 0 0 0 0 0 0 0 0 0 0 0 0 0 0 0 0 0
0 0 0 0 0 0 0 0 0 0 0 0 0 0 0 0 0 0 0 0 0 0 0 0 0 0 0 0 0 0 0 0 0 0
0 0 0 0 0 0 0 0 0 0 0 0 0 0 0 0 0 0 0 0 0 0 0 0 0 0 0 0 0 0 0 0 0 0
0;
#X coords 0 1 100 -1 200 140 1 0 0;
#X restore 678 427 graph;
#X obj 595 459 tgl 15 0 empty empty empty 17 7 0 10 #fcfcfc #000000
#000000 0 1;
#X obj 595 479 metro 100;
#X obj 595 514 bng 15 250 50 0 empty empty empty 17 7 0 10 #fcfcfc
#000000 #000000;
#X obj 551 548 tabwrite~ scope;
#X obj 71 478 ctlout;
#X floatatom 71 402 5 0 0 0 - - - 0;
#X floatatom 122 424 5 0 0 0 - - - 0;
#X floatatom 175 448 5 0 0 0 - - - 0;
#X text 59 382 Ctrl val;
#X text 114 406 Ctrl nr;
#X text 167 430 MIDI ch;
#X text 60 350 A);
#X text 64 558 B);
#X obj 67 628 ctlout 7;
#X floatatom 67 598 5 0 0 0 - - - 0;
#X text 55 578 Ctrl val;
#X floatatom 183 638 5 0 0 0 - - - 0;
#X text 171 618 Ctrl val;
#X text 180 598 C);
#X obj 183 668 ctlout 7 4;
#X connect 0 0 1 0;
#X connect 0 1 2 0;
#X connect 0 2 3 0;
#X connect 7 0 8 0;
#X connect 7 1 9 0;
#X connect 7 2 10 0;
#X connect 7 3 11 0;
#X connect 7 4 12 0;
#X connect 7 5 13 0;
#X connect 7 6 14 0;
#X connect 7 7 15 0;
#X connect 8 0 16 0;
#X connect 9 0 20 0;
#X connect 10 0 23 0;
#X connect 11 0 26 0;
#X connect 12 0 30 0;
#X connect 13 0 34 0;
#X connect 14 0 37 0;
#X connect 15 0 40 0;
#X connect 16 0 17 0;
#X connect 17 0 18 0;
#X connect 18 0 43 0;
#X connect 20 0 21 0;
#X connect 21 0 22 0;
#X connect 22 0 44 0;
#X connect 23 0 24 0;
#X connect 24 0 25 0;
#X connect 25 0 45 0;
#X connect 26 0 27 0;
#X connect 27 0 28 0;
#X connect 28 0 29 0;
#X connect 29 0 49 0;
#X connect 30 0 31 0;
#X connect 31 0 32 0;
#X connect 32 0 33 0;
#X connect 33 0 49 0;
#X connect 34 0 35 0;
#X connect 35 0 36 0;
#X connect 36 0 46 0;
#X connect 37 0 38 0;
#X connect 38 0 39 0;
#X connect 39 0 47 0;
#X connect 40 0 41 0;
#X connect 41 0 42 0;
#X connect 42 0 48 0;
#X connect 43 0 49 0;
#X connect 44 0 49 0;
#X connect 45 0 49 0;
#X connect 46 0 49 0;
#X connect 47 0 49 0;
#X connect 48 0 49 0;
#X connect 49 0 19 0;
#X connect 49 0 19 1;
#X connect 49 0 58 0;
#X connect 50 0 51 0;
#X connect 51 0 52 0;
#X connect 52 0 53 0;
#X connect 53 0 49 1;
#X connect 55 0 56 0;
#X connect 56 0 57 0;
#X connect 57 0 58 0;
#X connect 60 0 59 0;
#X connect 61 0 59 1;
#X connect 62 0 59 2;
#X connect 69 0 68 0;
#X connect 71 0 74 0;
