#N canvas 755 280 491 383 12;
#X floatatom 25 58 5 0 0 0 - - - 0;
#X text 71 59 Fundamental pitch;
#X obj 25 117 * 1;
#X obj 72 117 * 2;
#X obj 132 117 * 3;
#X obj 192 117 * 4;
#X obj 252 117 * 5;
#X obj 309 118 * 6;
#X obj 362 118 * 7;
#X obj 418 117 * 8;
#X floatatom 25 141 5 0 0 0 - - - 0;
#X floatatom 72 141 5 0 0 0 - - - 0;
#X floatatom 132 141 5 0 0 0 - - - 0;
#X floatatom 192 141 5 0 0 0 - - - 0;
#X floatatom 252 141 5 0 0 0 - - - 0;
#X floatatom 309 142 5 0 0 0 - - - 0;
#X floatatom 362 142 5 0 0 0 - - - 0;
#X floatatom 418 141 5 0 0 0 - - - 0;
#X obj 72 164 osc~;
#X obj 25 164 osc~;
#X obj 132 164 osc~;
#X obj 192 164 osc~;
#X obj 252 164 osc~;
#X obj 309 165 osc~;
#X obj 362 165 osc~;
#X obj 418 164 osc~;
#X obj 25 188 *~ 1;
#X obj 72 188 *~ 0.7;
#X obj 132 188 *~ 0.5;
#X obj 192 188 *~ 0.4;
#X obj 252 188 *~ 0.3;
#X obj 309 189 *~ 0.3;
#X obj 362 189 *~ 0.2;
#X obj 418 188 *~ 0.1;
#X obj 25 18 inlet;
#X obj 23 344 outlet~;
#X obj 23 311 *~ 0.4;
#X connect 0 0 2 0;
#X connect 0 0 3 0;
#X connect 0 0 4 0;
#X connect 0 0 5 0;
#X connect 0 0 6 0;
#X connect 0 0 7 1;
#X connect 0 0 8 0;
#X connect 0 0 9 0;
#X connect 2 0 10 0;
#X connect 3 0 11 0;
#X connect 4 0 12 0;
#X connect 5 0 13 0;
#X connect 6 0 14 0;
#X connect 7 0 15 0;
#X connect 8 0 16 0;
#X connect 9 0 17 0;
#X connect 10 0 19 0;
#X connect 11 0 18 0;
#X connect 12 0 20 0;
#X connect 13 0 21 0;
#X connect 14 0 22 0;
#X connect 15 0 23 0;
#X connect 16 0 24 0;
#X connect 17 0 25 0;
#X connect 18 0 27 0;
#X connect 19 0 26 0;
#X connect 20 0 28 0;
#X connect 21 0 29 0;
#X connect 22 0 30 0;
#X connect 23 0 31 0;
#X connect 24 0 32 0;
#X connect 25 0 33 0;
#X connect 26 0 36 0;
#X connect 27 0 36 0;
#X connect 28 0 36 0;
#X connect 29 0 36 0;
#X connect 30 0 36 0;
#X connect 31 0 36 0;
#X connect 32 0 36 0;
#X connect 33 0 36 0;
#X connect 34 0 0 0;
#X connect 36 0 35 0;
