#N canvas 755 280 1075 423 12;
#X floatatom 25 58 5 0 0 0 - - - 0;
#X text 71 59 Fundamental pitch;
#X obj 25 117 * 1;
#X obj 72 117 * 2;
#X obj 132 117 * 3;
#X obj 192 117 * 4;
#X obj 252 117 * 5;
#X obj 309 118 * 6;
#X obj 362 118 * 7;
#X obj 418 117 * 8;
#X floatatom 25 141 5 0 0 0 - - - 0;
#X floatatom 72 141 5 0 0 0 - - - 0;
#X floatatom 132 141 5 0 0 0 - - - 0;
#X floatatom 192 141 5 0 0 0 - - - 0;
#X floatatom 252 141 5 0 0 0 - - - 0;
#X floatatom 309 142 5 0 0 0 - - - 0;
#X floatatom 362 142 5 0 0 0 - - - 0;
#X floatatom 418 141 5 0 0 0 - - - 0;
#X obj 72 164 osc~;
#X obj 25 164 osc~;
#X obj 132 164 osc~;
#X obj 192 164 osc~;
#X obj 252 164 osc~;
#X obj 309 165 osc~;
#X obj 362 165 osc~;
#X obj 418 164 osc~;
#X obj 25 18 inlet;
#X obj 23 344 outlet~;
#X obj 23 311 *~ 0.4;
#N canvas 658 82 849 144 MIDI_ctrl_ins 0;
#X obj 31 67 outlet;
#X obj 123 66 outlet;
#X obj 209 70 outlet;
#X obj 303 65 outlet;
#X obj 433 67 outlet;
#X obj 538 71 outlet;
#X obj 630 65 outlet;
#X obj 751 68 outlet;
#X obj 33 33 ctlin 108 1;
#X obj 122 33 ctlin 109 1;
#X obj 208 33 ctlin 110 1;
#X obj 307 33 ctlin 111 1;
#X obj 428 33 ctlin 114 1;
#X obj 534 33 ctlin 115 1;
#X obj 631 31 ctlin 116 1;
#X obj 748 31 ctlin 117 1;
#X connect 8 0 0 0;
#X connect 9 0 1 0;
#X connect 10 0 2 0;
#X connect 11 0 3 0;
#X connect 12 0 4 0;
#X connect 13 0 5 0;
#X connect 14 0 6 0;
#X connect 15 0 7 0;
#X restore 587 69 pd MIDI_ctrl_ins;
#X f 59;
#X obj 588 99 vsl 15 128 0 127 0 0 empty empty empty 0 -9 0 10 #fcfcfc
#000000 #000000 0 1;
#X obj 588 238 / 127;
#X floatatom 588 261 5 0 0 0 - - - 0;
#X obj 588 289 sig~;
#X obj 646 100 vsl 15 128 0 127 0 0 empty empty empty 0 -9 0 10 #fcfcfc
#000000 #000000 0 1;
#X obj 646 239 / 127;
#X floatatom 646 262 5 0 0 0 - - - 0;
#X obj 646 290 sig~;
#X obj 703 98 vsl 15 128 0 127 0 0 empty empty empty 0 -9 0 10 #fcfcfc
#000000 #000000 0 1;
#X obj 703 237 / 127;
#X floatatom 703 260 5 0 0 0 - - - 0;
#X obj 703 288 sig~;
#X obj 761 99 vsl 15 128 0 127 0 0 empty empty empty 0 -9 0 10 #fcfcfc
#000000 #000000 0 1;
#X obj 761 238 / 127;
#X floatatom 761 261 5 0 0 0 - - - 0;
#X obj 761 289 sig~;
#X obj 821 101 vsl 15 128 0 127 0 0 empty empty empty 0 -9 0 10 #fcfcfc
#000000 #000000 0 1;
#X obj 821 240 / 127;
#X floatatom 821 263 5 0 0 0 - - - 0;
#X obj 821 291 sig~;
#X obj 879 102 vsl 15 128 0 127 0 0 empty empty empty 0 -9 0 10 #fcfcfc
#000000 #000000 0 1;
#X obj 879 241 / 127;
#X floatatom 879 264 5 0 0 0 - - - 0;
#X obj 879 292 sig~;
#X obj 936 100 vsl 15 128 0 127 0 0 empty empty empty 0 -9 0 10 #fcfcfc
#000000 #000000 0 1;
#X obj 936 239 / 127;
#X floatatom 936 262 5 0 0 0 - - - 0;
#X obj 936 290 sig~;
#X obj 994 101 vsl 15 128 0 127 0 0 empty empty empty 0 -9 0 10 #fcfcfc
#000000 #000000 0 1;
#X obj 994 240 / 127;
#X floatatom 994 263 5 0 0 0 - - - 0;
#X obj 994 291 sig~;
#X obj 418 188 *~;
#X obj 362 189 *~;
#X obj 309 189 *~;
#X obj 252 188 *~;
#X obj 192 188 *~;
#X obj 132 188 *~;
#X obj 72 188 *~;
#X obj 25 188 *~;
#X connect 0 0 2 0;
#X connect 0 0 3 0;
#X connect 0 0 4 0;
#X connect 0 0 5 0;
#X connect 0 0 6 0;
#X connect 0 0 7 1;
#X connect 0 0 8 0;
#X connect 0 0 9 0;
#X connect 2 0 10 0;
#X connect 3 0 11 0;
#X connect 4 0 12 0;
#X connect 5 0 13 0;
#X connect 6 0 14 0;
#X connect 7 0 15 0;
#X connect 8 0 16 0;
#X connect 9 0 17 0;
#X connect 10 0 19 0;
#X connect 11 0 18 0;
#X connect 12 0 20 0;
#X connect 13 0 21 0;
#X connect 14 0 22 0;
#X connect 15 0 23 0;
#X connect 16 0 24 0;
#X connect 17 0 25 0;
#X connect 18 0 68 0;
#X connect 19 0 69 0;
#X connect 20 0 67 0;
#X connect 21 0 66 0;
#X connect 22 0 65 0;
#X connect 23 0 64 0;
#X connect 24 0 63 0;
#X connect 25 0 62 0;
#X connect 26 0 0 0;
#X connect 28 0 27 0;
#X connect 29 0 30 0;
#X connect 29 1 34 0;
#X connect 29 2 38 0;
#X connect 29 3 42 0;
#X connect 29 4 46 0;
#X connect 29 5 50 0;
#X connect 29 6 54 0;
#X connect 29 7 58 0;
#X connect 30 0 31 0;
#X connect 31 0 32 0;
#X connect 32 0 33 0;
#X connect 33 0 69 1;
#X connect 34 0 35 0;
#X connect 35 0 36 0;
#X connect 36 0 37 0;
#X connect 37 0 68 1;
#X connect 38 0 39 0;
#X connect 39 0 40 0;
#X connect 40 0 41 0;
#X connect 41 0 67 1;
#X connect 42 0 43 0;
#X connect 43 0 44 0;
#X connect 44 0 45 0;
#X connect 45 0 66 1;
#X connect 46 0 47 0;
#X connect 47 0 48 0;
#X connect 48 0 49 0;
#X connect 49 0 65 1;
#X connect 50 0 51 0;
#X connect 51 0 52 0;
#X connect 52 0 53 0;
#X connect 53 0 64 1;
#X connect 54 0 55 0;
#X connect 55 0 56 0;
#X connect 56 0 57 0;
#X connect 57 0 63 1;
#X connect 58 0 59 0;
#X connect 59 0 60 0;
#X connect 60 0 61 0;
#X connect 61 0 62 1;
#X connect 62 0 28 0;
#X connect 63 0 28 0;
#X connect 64 0 28 0;
#X connect 65 0 28 0;
#X connect 66 0 28 0;
#X connect 67 0 28 0;
#X connect 68 0 28 0;
#X connect 69 0 28 0;
